static_grf.mot
version=1
nRows=30
nColumns 19
inDegrees=yes
endheader
time	1_ground_force_vx	1_ground_force_vy	1_ground_force_vz	1_ground_force_px	1_ground_force_py	1_ground_force_pz	1_ground_torque_x	1_ground_torque_y	1_ground_torque_z	2_ground_force_vx	2_ground_force_vy	2_ground_force_vz	2_ground_force_px	2_ground_force_py	2_ground_force_pz	2_ground_torque_x	2_ground_torque_y	2_ground_torque_z
            0.452500	           -1.291036	          289.225929	          -17.420566	           -0.245655	            0.006223	           -0.405748	           -0.005872	            1.315389	           -0.079228	           -0.350137	          254.981006	           19.540245	           -0.245848	            0.005563	           -0.688498	            0.001407	           -1.024795	           -0.078534
            0.453000	           -1.565687	          288.864754	          -17.283862	           -0.245259	            0.006224	           -0.405987	           -0.007104	            1.310759	           -0.078428	           -0.534795	          254.243066	           19.725409	           -0.246030	            0.005562	           -0.688222	            0.002171	           -1.032017	           -0.080069
            0.453500	           -1.702955	          288.684100	          -17.192582	           -0.245294	            0.006223	           -0.405874	           -0.007554	            1.280496	           -0.076260	           -0.207552	          254.428756	           19.632070	           -0.245934	            0.005560	           -0.687669	            0.000879	           -1.077019	           -0.083104
            0.454000	           -1.382348	          289.045086	          -17.283544	           -0.245423	            0.006223	           -0.405889	           -0.006195	            1.295389	           -0.077458	           -0.201591	          252.771566	           19.579228	           -0.246184	            0.005558	           -0.687231	            0.000825	           -1.034101	           -0.080100
            0.454500	           -1.427978	          288.504053	          -17.239893	           -0.245265	            0.006225	           -0.406361	           -0.006265	            1.265852	           -0.075642	           -0.395616	          254.612220	           19.632807	           -0.245649	            0.005562	           -0.688066	            0.001564	           -1.006317	           -0.077596
            0.455000	           -1.382363	          288.504455	          -17.331719	           -0.245511	            0.006223	           -0.405918	           -0.006173	            1.288292	           -0.077393	           -0.068373	          254.797880	           19.539468	           -0.245759	            0.005564	           -0.688546	            0.000298	           -1.111145	           -0.085209
            0.455500	           -1.290823	          288.684966	          -17.377029	           -0.245339	            0.006222	           -0.405701	           -0.006142	            1.373729	           -0.082690	           -0.254422	          254.428754	           19.585162	           -0.245659	            0.005564	           -0.688405	            0.001007	           -1.007212	           -0.077532
            0.456000	           -1.382638	          288.144514	          -17.470832	           -0.245524	            0.006224	           -0.406192	           -0.006189	            1.289837	           -0.078206	           -0.393602	          254.059600	           19.677764	           -0.245753	            0.005561	           -0.687897	            0.001549	           -0.999532	           -0.077417
            0.456500	           -1.382461	          289.045283	          -17.329400	           -0.245281	            0.006224	           -0.406157	           -0.006449	            1.348423	           -0.080843	           -0.443939	          254.981504	           19.305644	           -0.246017	            0.005563	           -0.688717	            0.001678	           -0.963758	           -0.072970
            0.457000	           -1.290922	          289.225732	          -17.374710	           -0.245262	            0.006223	           -0.405873	           -0.005959	            1.335085	           -0.080203	           -0.350116	          254.980838	           19.587173	           -0.245986	            0.005562	           -0.688203	            0.001451	           -1.056525	           -0.081160
            0.457500	           -1.428110	          289.225116	          -17.236801	           -0.245032	            0.006224	           -0.405985	           -0.006414	            1.299063	           -0.077420	           -0.250455	          253.324017	           19.534291	           -0.245782	            0.005560	           -0.687402	            0.001026	           -1.037890	           -0.080034
            0.458000	           -1.290889	          289.045497	          -17.375483	           -0.245528	            0.006223	           -0.405771	           -0.005985	            1.340164	           -0.080562	           -0.722777	          254.425891	           19.913858	           -0.245667	            0.005563	           -0.688176	            0.002735	           -0.962666	           -0.075348
            0.458500	           -1.336421	          287.963698	          -17.334151	           -0.245131	            0.006225	           -0.406267	           -0.006062	            1.306206	           -0.078628	           -0.251723	          253.691826	           19.676390	           -0.245610	            0.005560	           -0.687392	            0.001038	           -1.046015	           -0.081129
            0.459000	           -1.519730	          288.864567	          -17.238120	           -0.245649	            0.006225	           -0.406303	           -0.006770	            1.286908	           -0.076797	           -0.441760	          254.427576	           19.726026	           -0.245571	            0.005562	           -0.687886	            0.001817	           -1.046626	           -0.081146
            0.459500	           -1.381844	          289.404634	          -17.052718	           -0.245351	            0.006222	           -0.405602	           -0.006079	            1.273206	           -0.075022	           -0.348787	          254.612557	           19.585859	           -0.245866	            0.005562	           -0.688140	            0.001405	           -1.025972	           -0.078922
            0.460000	           -1.382689	          289.045676	          -17.421112	           -0.245158	            0.006225	           -0.406235	           -0.006267	            1.310133	           -0.078963	           -0.207531	          254.428589	           19.678998	           -0.245650	            0.005563	           -0.688111	            0.000844	           -1.034206	           -0.079992
            0.460500	           -1.337496	          288.866568	          -17.697134	           -0.245413	            0.006224	           -0.406174	           -0.006093	            1.315964	           -0.080621	           -0.115243	          254.797878	           19.492560	           -0.245846	            0.005562	           -0.688176	            0.000483	           -1.067827	           -0.081691
            0.461000	           -1.244558	          288.864423	          -17.192946	           -0.245338	            0.006223	           -0.405773	           -0.005739	            1.332102	           -0.079286	           -0.437149	          253.138864	           19.627570	           -0.245713	            0.005559	           -0.687292	            0.001810	           -1.048308	           -0.081282
            0.461500	           -1.519876	          289.045060	          -17.283203	           -0.245387	            0.006223	           -0.405825	           -0.006602	            1.255567	           -0.075076	           -0.300046	          254.061110	           19.349227	           -0.245676	            0.005561	           -0.687825	            0.001212	           -1.026287	           -0.078162
            0.462000	           -1.336082	          289.224544	          -17.099461	           -0.245407	            0.006221	           -0.405443	           -0.006050	            1.309636	           -0.077428	           -0.394890	          254.427577	           19.772934	           -0.245806	            0.005563	           -0.688329	            0.001555	           -1.001573	           -0.077838
            0.462500	           -1.428631	          289.586434	          -17.418679	           -0.245471	            0.006222	           -0.405693	           -0.006370	            1.291292	           -0.077671	           -0.348081	          254.428081	           19.679058	           -0.245866	            0.005562	           -0.688035	            0.001444	           -1.055650	           -0.081651
            0.463000	           -1.611757	          288.865139	          -17.375460	           -0.245410	            0.006225	           -0.406259	           -0.006933	            1.242596	           -0.074743	           -0.253031	          254.059940	           19.724632	           -0.245585	            0.005563	           -0.688195	            0.001060	           -1.064543	           -0.082649
            0.463500	           -1.245436	          288.685761	          -17.560567	           -0.245601	            0.006224	           -0.406181	           -0.005745	            1.331696	           -0.081006	           -0.300566	          254.244079	           19.678381	           -0.245819	            0.005562	           -0.688078	            0.001177	           -0.995411	           -0.077044
            0.464000	           -1.106963	          288.503918	          -17.194834	           -0.245657	            0.006225	           -0.406219	           -0.005141	            1.339769	           -0.079850	           -0.204229	          253.507992	           19.628785	           -0.245624	            0.005562	           -0.687805	            0.000832	           -1.033310	           -0.080008
            0.464500	           -1.336876	          287.964484	          -17.517575	           -0.245319	            0.006225	           -0.406294	           -0.006176	            1.330335	           -0.080927	           -0.576993	          252.953882	           19.720829	           -0.245523	            0.005559	           -0.687035	            0.002188	           -0.959372	           -0.074795
            0.465000	           -1.382054	          288.684162	          -17.193378	           -0.245107	            0.006224	           -0.406000	           -0.006345	            1.325298	           -0.078932	           -0.397610	          255.164673	           19.634778	           -0.245697	            0.005564	           -0.688528	            0.001554	           -0.997528	           -0.076759
            0.465500	           -1.474049	          288.504437	          -17.331491	           -0.245652	            0.006224	           -0.406114	           -0.006665	            1.304526	           -0.078368	           -0.204290	          253.508494	           19.488000	           -0.245399	            0.005561	           -0.687509	            0.000843	           -1.046367	           -0.080438
            0.466000	           -1.474309	          288.685127	          -17.422430	           -0.245641	            0.006222	           -0.405643	           -0.006670	            1.306125	           -0.078826	           -0.393019	          253.876129	           19.489394	           -0.245679	            0.005562	           -0.687939	            0.001614	           -1.042850	           -0.080057
            0.466500	           -1.519664	          288.504035	          -17.239666	           -0.245412	            0.006224	           -0.406036	           -0.006563	            1.245930	           -0.074451	           -0.344155	          253.323678	           19.534331	           -0.245926	            0.005559	           -0.687400	            0.001434	           -1.055217	           -0.081370
            0.467000	           -1.153831	          288.505679	          -17.607423	           -0.245139	            0.006224	           -0.406152	           -0.005312	            1.328190	           -0.081059	           -0.579672	          253.690642	           19.676529	           -0.245840	            0.005559	           -0.687386	            0.002334	           -1.021273	           -0.079211
